# Blender v2.93.0 OBJ File: ''
# www.blender.org
o Cube_Cube.001
v -0.025613 -0.056956 0.063506
v -0.025613 0.198841 0.063506
v -0.025613 0.042969 -0.071052
v -0.025613 0.198841 -0.192291
v -0.025613 0.070942 0.063506
v -0.025613 0.070942 -0.192291
v -0.025613 0.198841 -0.503738
v -0.025613 0.070942 -0.503738
v -0.025613 -0.056956 -0.055959
v -0.025613 0.198841 -0.025835
v -0.025613 0.070942 -0.025835
v -0.067562 0.134892 0.063506
v -0.067562 0.134892 -0.192291
v -0.067562 0.134892 -0.503738
v -0.024019 0.181318 -0.194105
v -0.067562 0.134892 -0.025835
v -0.091869 0.250097 -0.036245
v -0.102812 0.233415 -0.036245
v -0.025613 -0.102068 -0.055959
v -0.025613 -0.102068 0.063506
v -0.024019 0.181318 -0.503738
v -0.054474 0.134892 -0.503738
v -0.024019 0.088465 -0.503738
v -0.054474 0.134892 -0.194105
v -0.024019 0.088465 -0.194105
v 0.025613 -0.056956 0.063506
v 0.025613 0.198841 0.063506
v 0.025613 0.042969 -0.071052
v 0.025613 0.198841 -0.192291
v 0.000000 0.042969 -0.071052
v 0.000000 0.198841 -0.192291
v 0.000000 -0.056956 0.063506
v 0.000000 0.198841 0.063506
v 0.025613 0.070942 0.063506
v 0.025613 0.070942 -0.192291
v 0.000000 0.070942 0.063506
v 0.000000 0.070942 -0.192291
v 0.025613 0.198841 -0.503738
v 0.000000 0.198841 -0.503738
v 0.025613 0.070942 -0.503738
v 0.000000 0.070942 -0.503738
v 0.025613 -0.056956 -0.055959
v 0.025613 0.198841 -0.025835
v 0.000000 0.198841 -0.025835
v 0.000000 -0.056956 -0.055959
v 0.025613 0.070942 -0.025835
v 0.067562 0.134892 0.063506
v 0.067562 0.134892 -0.192291
v 0.000000 0.134892 0.063506
v 0.067562 0.134892 -0.503738
v 0.024019 0.181318 -0.194105
v 0.067562 0.134892 -0.025835
v 0.091869 0.250097 -0.036245
v 0.102812 0.233415 -0.036245
v 0.025613 -0.102068 -0.055959
v 0.025613 -0.102068 0.063506
v 0.000000 -0.102068 0.063506
v 0.000000 -0.102068 -0.055959
v 0.024019 0.181318 -0.503738
v 0.000000 0.181318 -0.503738
v 0.054474 0.134892 -0.503738
v 0.024019 0.088465 -0.503738
v 0.000000 0.088465 -0.503738
v 0.000000 0.181318 -0.194105
v 0.054474 0.134892 -0.194105
v 0.024019 0.088465 -0.194105
v 0.000000 0.134892 -0.194105
v 0.000000 0.088465 -0.194105
vt 0.360423 0.842500
vt 0.225595 0.842500
vt 0.225595 0.549054
vt 0.360423 0.549054
vt 0.734530 0.417712
vt 0.734530 0.530438
vt 0.689387 0.530425
vt 0.615450 0.417678
vt 0.200828 0.842500
vt 0.225595 1.000000
vt 0.200828 1.000000
vt 0.548952 0.450946
vt 0.548952 0.240339
vt 0.615450 0.240339
vt 0.615450 0.450946
vt 0.200828 0.549054
vt 0.200828 0.000000
vt 0.225595 0.000000
vt 0.024766 0.237214
vt 0.066000 0.450946
vt 0.041234 0.450946
vt 0.000000 0.237214
vt 0.734531 0.079534
vt 0.734531 0.304986
vt 0.689387 0.304973
vt 0.689387 0.079521
vt 0.360423 0.293446
vt 0.360423 0.000000
vt 0.401657 0.213732
vt 0.405576 0.450946
vt 0.479529 0.563663
vt 0.456456 0.563663
vt 0.402767 0.481831
vt 0.360423 0.000000
vt 0.066000 1.000000
vt 0.041234 1.000000
vt 0.360423 0.450946
vt 0.779683 0.801996
vt 0.734530 0.801996
vt 0.734531 0.625371
vt 0.779683 0.625371
vt 0.360423 1.000000
vt 0.066000 0.000000
vt 0.200828 0.000000
vt 0.200828 0.157499
vt 0.066000 0.157499
vt 0.200828 0.450946
vt 0.200828 1.000000
vt 0.360423 0.450946
vt 0.360423 0.481831
vt 0.479529 0.450946
vt 0.613951 0.461406
vt 0.613951 0.609490
vt 0.578885 0.606762
vt 0.779683 0.545856
vt 0.804450 0.545856
vt 0.804450 0.756463
vt 0.779683 0.756463
vt 0.689387 0.000000
vt 0.734531 0.000013
vt 0.734531 0.545856
vt 0.930298 0.545856
vt 0.832414 0.545856
vt 0.832414 0.000000
vt 0.930298 0.000000
vt 0.832414 0.545856
vt 0.734530 0.545856
vt 0.734530 0.000000
vt 0.832414 0.000000
vt 0.405576 0.676379
vt 0.402767 0.645494
vt 0.360423 0.676379
vt 0.360423 0.645494
vt 0.711483 0.612269
vt 0.657794 0.694101
vt 0.615450 0.694101
vt 0.615450 0.612269
vt 0.657794 0.530438
vt 0.615450 0.530438
vt 0.930298 0.000000
vt 0.953524 0.000000
vt 0.953524 0.545856
vt 0.930298 0.545856
vt 0.953524 0.000000
vt 0.976750 0.000000
vt 0.976750 0.545856
vt 0.953524 0.545856
vt 0.360423 0.842500
vt 0.360423 0.549054
vt 0.225595 0.549054
vt 0.225595 0.842500
vt 0.615450 0.417678
vt 0.689387 0.530425
vt 0.225595 1.000000
vt 0.548952 0.450946
vt 0.615450 0.450946
vt 0.615450 0.240339
vt 0.548952 0.240339
vt 0.225595 0.000000
vt 0.024766 0.237214
vt 0.066000 0.450946
vt 0.689387 0.079521
vt 0.689387 0.304973
vt 0.401657 0.213732
vt 0.360423 0.000000
vt 0.360423 0.293446
vt 0.405576 0.450946
vt 0.402767 0.481831
vt 0.456456 0.563663
vt 0.479529 0.563663
vt 0.360423 0.000000
vt 0.066000 1.000000
vt 0.360423 0.450946
vt 0.779683 0.801996
vt 0.779683 0.625371
vt 0.360423 1.000000
vt 0.066000 0.000000
vt 0.066000 0.157499
vt 0.200828 0.157499
vt 0.200828 0.000000
vt 0.200828 1.000000
vt 0.200828 0.450946
vt 0.479529 0.450946
vt 0.578885 0.606762
vt 0.613951 0.609490
vt 0.613951 0.461406
vt 0.779683 0.545856
vt 0.779683 0.756463
vt 0.689387 0.000000
vt 0.930298 0.545856
vt 0.930298 0.000000
vt 0.832414 0.000000
vt 0.832414 0.545856
vt 0.832414 0.545856
vt 0.832414 0.000000
vt 0.734530 0.000000
vt 0.734530 0.545856
vt 0.402767 0.645494
vt 0.405576 0.676379
vt 0.711483 0.612269
vt 0.657794 0.694101
vt 0.657794 0.530438
vt 0.930298 0.000000
vt 0.930298 0.545856
vt 0.976750 0.545856
vt 0.976750 0.000000
vn -0.8361 0.5485 0.0000
vn 0.0000 0.0000 1.0000
vn 0.0000 1.0000 0.0000
vn -1.0000 0.0000 0.0000
vn 0.0000 -0.9744 -0.2248
vn 0.0000 0.0000 -1.0000
vn 0.0000 -1.0000 0.0000
vn 0.0000 -0.1493 -0.9888
vn -0.8361 -0.5485 0.0000
vn -0.1034 0.0678 0.9923
vn 0.8361 -0.5485 0.0000
vn 0.8361 0.5485 0.0000
vn 1.0000 0.0000 0.0000
vn 0.1034 0.0678 0.9923
s off
f 16/1/1 10/2/1 4/3/1 13/4/1
f 49/5/2 33/6/2 2/7/2 12/8/2
f 44/9/3 10/2/3 2/10/3 33/11/3
f 1/12/4 9/13/4 19/14/4 20/15/4
f 4/3/3 31/16/3 39/17/3 7/18/3
f 3/19/5 6/20/5 37/21/5 30/22/5
f 32/23/2 36/24/2 5/25/2 1/26/2
f 9/13/4 11/27/4 6/28/4 3/29/4
f 8/30/6 14/31/6 22/32/6 23/33/6
f 13/4/1 4/3/1 7/18/1 14/34/1
f 37/21/7 6/20/7 8/35/7 41/36/7
f 1/12/4 5/37/4 11/27/4 9/13/4
f 3/38/8 30/39/8 45/40/8 9/41/8
f 31/16/3 4/3/3 10/2/3 44/9/3
f 12/42/1 2/10/1 10/2/1 16/1/1
f 5/43/9 12/44/9 16/45/9 11/46/9
f 6/20/9 13/47/9 14/48/9 8/35/9
f 41/49/6 8/30/6 23/33/6 63/50/6
f 36/24/2 49/5/2 12/8/2 5/25/2
f 11/46/9 16/45/9 13/47/9 6/20/9
f 16/51/10 10/52/10 17/53/10 18/54/10
f 19/55/7 58/56/7 57/57/7 20/58/7
f 32/23/2 1/26/2 20/59/2 57/60/2
f 9/41/6 45/40/6 58/61/6 19/55/6
f 22/62/11 21/63/11 15/64/11 24/65/11
f 23/66/12 22/67/12 24/68/12 25/69/12
f 14/31/6 7/70/6 21/71/6 22/32/6
f 7/70/6 39/72/6 60/73/6 21/71/6
f 24/74/6 15/75/6 64/76/6 67/77/6
f 25/78/6 24/74/6 67/77/6 68/79/6
f 21/80/7 60/81/7 64/82/7 15/83/7
f 63/84/3 23/85/3 25/86/3 68/87/3
f 52/88/12 48/89/12 29/90/12 43/91/12
f 49/5/2 47/92/2 27/93/2 33/6/2
f 44/9/3 33/11/3 27/94/3 43/91/3
f 26/95/13 56/96/13 55/97/13 42/98/13
f 29/90/3 38/99/3 39/17/3 31/16/3
f 28/100/5 30/22/5 37/21/5 35/101/5
f 32/23/2 26/102/2 34/103/2 36/24/2
f 42/98/13 28/104/13 35/105/13 46/106/13
f 40/107/6 62/108/6 61/109/6 50/110/6
f 48/89/12 50/111/12 38/99/12 29/90/12
f 37/21/7 41/36/7 40/112/7 35/101/7
f 26/95/13 42/98/13 46/106/13 34/113/13
f 28/114/8 42/115/8 45/40/8 30/39/8
f 31/16/3 44/9/3 43/91/3 29/90/3
f 47/116/12 52/88/12 43/91/12 27/94/12
f 34/117/11 46/118/11 52/119/11 47/120/11
f 35/101/11 40/112/11 50/121/11 48/122/11
f 41/49/6 63/50/6 62/108/6 40/107/6
f 36/24/2 34/103/2 47/92/2 49/5/2
f 46/118/11 35/101/11 48/122/11 52/119/11
f 52/123/14 54/124/14 53/125/14 43/126/14
f 55/127/7 56/128/7 57/57/7 58/56/7
f 32/23/2 57/60/2 56/129/2 26/102/2
f 42/115/6 55/127/6 58/61/6 45/40/6
f 61/130/9 65/131/9 51/132/9 59/133/9
f 62/134/1 66/135/1 65/136/1 61/137/1
f 50/110/6 61/109/6 59/138/6 38/139/6
f 38/139/6 59/138/6 60/73/6 39/72/6
f 65/140/6 67/77/6 64/76/6 51/141/6
f 66/142/6 68/79/6 67/77/6 65/140/6
f 59/143/7 51/144/7 64/82/7 60/81/7
f 63/84/3 68/87/3 66/145/3 62/146/3
